<svg width="34" height="34" viewBox="0 0 34 34" fill="none" xmlns="http://www.w3.org/2000/svg">
<path fill-rule="evenodd" clip-rule="evenodd" d="M18.369 9.96412L21.2547 7.07843C22.588 5.7451 23.2547 5.07843 24.0831 5.07843C24.9115 5.07843 25.5798 5.74673 26.9164 7.08334C28.253 8.41994 28.9213 9.08824 28.9213 9.91667C28.9213 10.7451 28.2547 11.4118 26.9213 12.7451L24.0668 15.5996C21.7095 14.2364 19.7495 12.2911 18.369 9.96412ZM16.9147 11.4184L6.52282 21.8103C6.09776 22.2354 5.88523 22.4479 5.74549 22.709C5.60576 22.9701 5.54681 23.2648 5.42892 23.8543L4.39686 29.0146C4.33034 29.3472 4.29708 29.5135 4.39168 29.6081C4.48629 29.7027 4.65258 29.6694 4.98517 29.6029L4.98519 29.6029L4.98521 29.6029L10.1455 28.5709C10.735 28.453 11.0297 28.394 11.2908 28.2543C11.5519 28.1145 11.7644 27.902 12.1895 27.477L22.6088 17.0576C20.3022 15.6302 18.3566 13.6981 16.9147 11.4184Z" fill="#DAAF53"/>
</svg>
