<svg width="47" height="47" viewBox="0 0 47 47" fill="none" xmlns="http://www.w3.org/2000/svg">
<path fill-rule="evenodd" clip-rule="evenodd" d="M27.5966 5.71763V5.71765L27.8613 8.3649C28.0247 9.99844 28.1064 10.8152 28.6592 11.0442C29.212 11.2732 29.8473 10.7534 31.1179 9.71381L33.1769 8.02913C33.8427 7.48442 34.1756 7.21207 34.5604 7.23126C34.9452 7.25046 35.2494 7.55458 35.8576 8.16284L38.8369 11.1421C39.4452 11.7504 39.7493 12.0545 39.7685 12.4394C39.7877 12.8242 39.5153 13.1571 38.9706 13.8228L37.2859 15.8819C36.2463 17.1525 35.7265 17.7878 35.9555 18.3406C36.1845 18.8935 37.0013 18.9751 38.6348 19.1385L41.2822 19.4032C42.1381 19.4888 42.5661 19.5316 42.8246 19.8173C43.0832 20.103 43.0832 20.5331 43.0832 21.3933V25.6067C43.0832 26.4669 43.0832 26.897 42.8246 27.1827C42.5661 27.4684 42.1381 27.5112 41.2822 27.5968L38.6356 27.8614C37.002 28.0248 36.1852 28.1064 35.9563 28.6593C35.7273 29.2121 36.2471 29.8474 37.2866 31.1179L37.2866 31.118L38.9707 33.1763C39.5154 33.842 39.7878 34.1749 39.7686 34.5597C39.7494 34.9446 39.4453 35.2487 38.837 35.857L35.8577 38.8363C35.2495 39.4445 34.9453 39.7487 34.5605 39.7678C34.1757 39.787 33.8428 39.5147 33.177 38.97L31.118 37.2853C29.8474 36.2457 29.2121 35.7259 28.6593 35.9549C28.1064 36.1839 28.0248 37.0007 27.8614 38.6342L27.5966 41.2823C27.511 42.1383 27.4682 42.5662 27.1825 42.8248C26.8968 43.0833 26.4667 43.0833 25.6065 43.0833H21.3931C20.5329 43.0833 20.1028 43.0833 19.8172 42.8248C19.5315 42.5662 19.4887 42.1383 19.4031 41.2823L19.1383 38.635C18.975 37.0014 18.8933 36.1847 18.3405 35.9557C17.7877 35.7267 17.1524 36.2465 15.8818 37.2861L13.8226 38.9709C13.1568 39.5156 12.824 39.7879 12.4391 39.7687C12.0543 39.7495 11.7502 39.4454 11.1419 38.8372L8.1626 35.8579C7.55434 35.2496 7.25022 34.9455 7.23102 34.5606C7.21183 34.1758 7.48418 33.8429 8.02889 33.1772L8.0289 33.1772L9.71364 31.118C10.7532 29.8474 11.273 29.2121 11.044 28.6593C10.815 28.1065 9.99827 28.0248 8.36474 27.8615L5.7175 27.5968H5.71748C4.86156 27.5112 4.4336 27.4684 4.17505 27.1827C3.9165 26.897 3.9165 26.4669 3.9165 25.6067L3.9165 21.3933C3.9165 20.5331 3.9165 20.103 4.17505 19.8173C4.4336 19.5316 4.86156 19.4888 5.71748 19.4032H5.7175L8.36547 19.1384C9.99901 18.9751 10.8158 18.8934 11.0448 18.3406C11.2737 17.7878 10.754 17.1525 9.71438 15.8819L8.02898 13.8219C7.48427 13.1562 7.21192 12.8233 7.23111 12.4385C7.25031 12.0536 7.55443 11.7495 8.16269 11.1413L11.142 8.16195C11.7503 7.5537 12.0544 7.24957 12.4392 7.23037C12.824 7.21118 13.1569 7.48354 13.8227 8.02825L15.8819 9.71304C17.1525 10.7526 17.7878 11.2724 18.3406 11.0434C18.8934 10.8144 18.9751 9.99767 19.1384 8.36413L19.4031 5.71765V5.71763C19.4887 4.86171 19.5315 4.43375 19.8172 4.1752C20.1028 3.91666 20.5329 3.91666 21.3931 3.91666H25.6065C26.4667 3.91666 26.8968 3.91666 27.1825 4.1752C27.4682 4.43375 27.511 4.86171 27.5966 5.71763ZM23.4998 31.3333C27.8261 31.3333 31.3332 27.8262 31.3332 23.5C31.3332 19.1738 27.8261 15.6667 23.4998 15.6667C19.1736 15.6667 15.6665 19.1738 15.6665 23.5C15.6665 27.8262 19.1736 31.3333 23.4998 31.3333Z" fill="#DAAF53"/>
</svg>
